<svg width="30" height="28" viewBox="0 0 30 28" fill="none" xmlns="http://www.w3.org/2000/svg">
<path d="M7.89474 25.3826C7.2193 25.3826 6.64129 25.1621 6.1607 24.7211C5.6793 24.2794 5.4386 23.7486 5.4386 23.1288V9.60609C5.4386 8.9863 5.6793 8.45591 6.1607 8.01492C6.64129 7.57317 7.2193 7.3523 7.89474 7.3523H10.3509C10.3509 6.11272 10.8319 5.05156 11.7939 4.16883C12.7559 3.28609 13.9123 2.84473 15.2632 2.84473C16.614 2.84473 17.7705 3.28609 18.7325 4.16883C19.6944 5.05156 20.1754 6.11272 20.1754 7.3523H22.6316C23.307 7.3523 23.8854 7.57317 24.3668 8.01492C24.8474 8.45591 25.0877 8.9863 25.0877 9.60609V23.1288C25.0877 23.7486 24.8474 24.2794 24.3668 24.7211C23.8854 25.1621 23.307 25.3826 22.6316 25.3826H7.89474ZM7.89474 23.1288H22.6316V9.60609H20.1754V11.8599C20.1754 12.1792 20.058 12.4466 19.823 12.6622C19.5872 12.8786 19.2953 12.9868 18.9474 12.9868C18.5994 12.9868 18.308 12.8786 18.073 12.6622C17.8372 12.4466 17.7193 12.1792 17.7193 11.8599V9.60609H12.807V11.8599C12.807 12.1792 12.6895 12.4466 12.4546 12.6622C12.2188 12.8786 11.9269 12.9868 11.5789 12.9868C11.231 12.9868 10.9395 12.8786 10.7046 12.6622C10.4688 12.4466 10.3509 12.1792 10.3509 11.8599V9.60609H7.89474V23.1288ZM12.807 7.3523H17.7193C17.7193 6.73251 17.479 6.20212 16.9984 5.76113C16.517 5.31939 15.9386 5.09851 15.2632 5.09851C14.5877 5.09851 14.0097 5.31939 13.5291 5.76113C13.0477 6.20212 12.807 6.73251 12.807 7.3523ZM7.89474 23.1288V9.60609V23.1288Z" fill="black"/>
</svg>
