<svg width="352" height="57" viewBox="0 0 352 57" fill="none" xmlns="http://www.w3.org/2000/svg">
<path d="M29.04 30.1492C28.112 28.1972 26.768 26.6932 25.008 25.6372C23.248 24.5492 21.2 24.0052 18.864 24.0052C16.528 24.0052 14.416 24.5492 12.528 25.6372C10.672 26.6932 9.2 28.2292 8.112 30.2452C7.056 32.2292 6.528 34.5332 6.528 37.1572C6.528 39.7812 7.056 42.0852 8.112 44.0692C9.2 46.0532 10.672 47.5892 12.528 48.6772C14.416 49.7332 16.528 50.2612 18.864 50.2612C22.128 50.2612 24.816 49.2852 26.928 47.3332C29.04 45.3812 30.272 42.7412 30.624 39.4132H17.28V35.8612H35.28V39.2212C35.024 41.9732 34.16 44.5012 32.688 46.8052C31.216 49.0772 29.28 50.8852 26.88 52.2292C24.48 53.5412 21.808 54.1972 18.864 54.1972C15.76 54.1972 12.928 53.4772 10.368 52.0372C7.808 50.5652 5.776 48.5332 4.272 45.9412C2.8 43.3492 2.064 40.4212 2.064 37.1572C2.064 33.8932 2.8 30.9652 4.272 28.3732C5.776 25.7492 7.808 23.7172 10.368 22.2772C12.928 20.8052 15.76 20.0692 18.864 20.0692C22.416 20.0692 25.552 20.9492 28.272 22.7092C31.024 24.4692 33.024 26.9492 34.272 30.1492H29.04ZM39.4234 40.6612C39.4234 37.9732 39.9674 35.6212 41.0554 33.6052C42.1434 31.5572 43.6314 29.9732 45.5194 28.8532C47.4394 27.7332 49.5674 27.1732 51.9034 27.1732C54.2074 27.1732 56.2074 27.6692 57.9034 28.6612C59.5994 29.6532 60.8634 30.9012 61.6954 32.4052V27.6052H66.1114V53.9092H61.6954V49.0132C60.8314 50.5492 59.5354 51.8292 57.8074 52.8532C56.1114 53.8452 54.1274 54.3412 51.8554 54.3412C49.5194 54.3412 47.4074 53.7652 45.5194 52.6132C43.6314 51.4612 42.1434 49.8452 41.0554 47.7652C39.9674 45.6852 39.4234 43.3172 39.4234 40.6612ZM61.6954 40.7092C61.6954 38.7252 61.2954 36.9972 60.4954 35.5252C59.6954 34.0532 58.6074 32.9332 57.2314 32.1652C55.8874 31.3652 54.3994 30.9652 52.7674 30.9652C51.1354 30.9652 49.6474 31.3492 48.3034 32.1172C46.9594 32.8852 45.8874 34.0052 45.0874 35.4772C44.2874 36.9492 43.8874 38.6772 43.8874 40.6612C43.8874 42.6772 44.2874 44.4372 45.0874 45.9412C45.8874 47.4132 46.9594 48.5492 48.3034 49.3492C49.6474 50.1172 51.1354 50.5012 52.7674 50.5012C54.3994 50.5012 55.8874 50.1172 57.2314 49.3492C58.6074 48.5492 59.6954 47.4132 60.4954 45.9412C61.2954 44.4372 61.6954 42.6932 61.6954 40.7092ZM105.125 27.1252C107.173 27.1252 108.997 27.5572 110.597 28.4212C112.197 29.2532 113.461 30.5172 114.389 32.2132C115.317 33.9092 115.781 35.9732 115.781 38.4052V53.9092H111.461V39.0292C111.461 36.4052 110.805 34.4052 109.493 33.0292C108.213 31.6212 106.469 30.9172 104.261 30.9172C101.989 30.9172 100.181 31.6532 98.8369 33.1252C97.4929 34.5652 96.8209 36.6612 96.8209 39.4132V53.9092H92.5009V39.0292C92.5009 36.4052 91.8449 34.4052 90.5329 33.0292C89.2529 31.6212 87.5089 30.9172 85.3009 30.9172C83.0289 30.9172 81.2209 31.6532 79.8769 33.1252C78.5329 34.5652 77.8609 36.6612 77.8609 39.4132V53.9092H73.4929V27.6052H77.8609V31.3972C78.7249 30.0212 79.8769 28.9652 81.3169 28.2292C82.7889 27.4932 84.4049 27.1252 86.1649 27.1252C88.3729 27.1252 90.3249 27.6212 92.0209 28.6132C93.7169 29.6052 94.9809 31.0612 95.8129 32.9812C96.5489 31.1252 97.7649 29.6852 99.4609 28.6612C101.157 27.6372 103.045 27.1252 105.125 27.1252ZM127.314 18.3892V53.9092H122.946V18.3892H127.314ZM158.759 39.7492C158.759 40.5812 158.711 41.4612 158.615 42.3892H137.591C137.751 44.9812 138.631 47.0132 140.231 48.4852C141.863 49.9252 143.831 50.6452 146.135 50.6452C148.023 50.6452 149.591 50.2132 150.839 49.3492C152.119 48.4532 153.015 47.2692 153.527 45.7972H158.231C157.527 48.3252 156.119 50.3892 154.007 51.9892C151.895 53.5572 149.271 54.3412 146.135 54.3412C143.639 54.3412 141.399 53.7812 139.415 52.6612C137.463 51.5412 135.927 49.9572 134.807 47.9092C133.687 45.8292 133.127 43.4292 133.127 40.7092C133.127 37.9892 133.671 35.6052 134.759 33.5572C135.847 31.5092 137.367 29.9412 139.319 28.8532C141.303 27.7332 143.575 27.1732 146.135 27.1732C148.631 27.1732 150.839 27.7172 152.759 28.8052C154.679 29.8932 156.151 31.3972 157.175 33.3172C158.231 35.2052 158.759 37.3492 158.759 39.7492ZM154.247 38.8372C154.247 37.1732 153.879 35.7492 153.143 34.5652C152.407 33.3492 151.399 32.4372 150.119 31.8292C148.871 31.1892 147.479 30.8692 145.943 30.8692C143.735 30.8692 141.847 31.5732 140.279 32.9812C138.743 34.3892 137.863 36.3412 137.639 38.8372H154.247Z" fill="#212121"/>
<path d="M181.6 20.2132C185.152 20.2132 188.256 20.9172 190.912 22.3252C193.568 23.7332 195.616 25.7172 197.056 28.2772C198.528 30.8052 199.264 33.7332 199.264 37.0612C199.264 40.3572 198.528 43.2852 197.056 45.8452C195.616 48.4052 193.552 50.3892 190.864 51.7972C188.208 53.2052 185.12 53.9092 181.6 53.9092H168.976V20.2132H181.6ZM181.072 46.8052C184.176 46.8052 186.592 45.9572 188.32 44.2612C190.048 42.5652 190.912 40.1652 190.912 37.0612C190.912 33.9572 190.048 31.5412 188.32 29.8132C186.592 28.0852 184.176 27.2212 181.072 27.2212H177.184V46.8052H181.072ZM202.219 40.4692C202.219 37.7172 202.731 35.3012 203.755 33.2212C204.811 31.1412 206.235 29.5412 208.027 28.4212C209.819 27.3012 211.819 26.7412 214.027 26.7412C215.915 26.7412 217.563 27.1252 218.971 27.8932C220.411 28.6612 221.515 29.6692 222.283 30.9172V27.1252H230.491V53.9092H222.283V50.1172C221.483 51.3652 220.363 52.3732 218.923 53.1412C217.515 53.9092 215.867 54.2932 213.979 54.2932C211.803 54.2932 209.819 53.7332 208.027 52.6132C206.235 51.4612 204.811 49.8452 203.755 47.7652C202.731 45.6532 202.219 43.2212 202.219 40.4692ZM222.283 40.5172C222.283 38.4692 221.707 36.8532 220.555 35.6692C219.435 34.4852 218.059 33.8932 216.427 33.8932C214.795 33.8932 213.403 34.4852 212.251 35.6692C211.131 36.8212 210.571 38.4212 210.571 40.4692C210.571 42.5172 211.131 44.1492 212.251 45.3652C213.403 46.5492 214.795 47.1412 216.427 47.1412C218.059 47.1412 219.435 46.5492 220.555 45.3652C221.707 44.1812 222.283 42.5652 222.283 40.5172ZM252.749 26.8372C255.885 26.8372 258.381 27.8612 260.237 29.9092C262.125 31.9252 263.069 34.7092 263.069 38.2612V53.9092H254.909V39.3652C254.909 37.5732 254.445 36.1812 253.517 35.1892C252.589 34.1972 251.341 33.7012 249.773 33.7012C248.205 33.7012 246.957 34.1972 246.029 35.1892C245.101 36.1812 244.637 37.5732 244.637 39.3652V53.9092H236.429V27.1252H244.637V30.6772C245.469 29.4932 246.589 28.5652 247.997 27.8932C249.405 27.1892 250.989 26.8372 252.749 26.8372ZM279.669 54.2932C277.333 54.2932 275.253 53.8932 273.429 53.0932C271.605 52.2932 270.165 51.2052 269.109 49.8292C268.053 48.4212 267.461 46.8532 267.333 45.1252H275.445C275.541 46.0532 275.973 46.8052 276.741 47.3812C277.509 47.9572 278.453 48.2452 279.573 48.2452C280.597 48.2452 281.381 48.0532 281.925 47.6692C282.501 47.2532 282.789 46.7252 282.789 46.0852C282.789 45.3172 282.389 44.7572 281.589 44.4052C280.789 44.0212 279.493 43.6052 277.701 43.1572C275.781 42.7092 274.181 42.2452 272.901 41.7652C271.621 41.2532 270.517 40.4692 269.589 39.4132C268.661 38.3252 268.197 36.8692 268.197 35.0452C268.197 33.5092 268.613 32.1172 269.445 30.8692C270.309 29.5892 271.557 28.5812 273.189 27.8452C274.853 27.1092 276.821 26.7412 279.093 26.7412C282.453 26.7412 285.093 27.5732 287.013 29.2372C288.965 30.9012 290.085 33.1092 290.373 35.8612H282.789C282.661 34.9332 282.245 34.1972 281.541 33.6532C280.869 33.1092 279.973 32.8372 278.853 32.8372C277.893 32.8372 277.157 33.0292 276.645 33.4132C276.133 33.7652 275.877 34.2612 275.877 34.9012C275.877 35.6692 276.277 36.2452 277.077 36.6292C277.909 37.0132 279.189 37.3972 280.917 37.7812C282.901 38.2932 284.517 38.8052 285.765 39.3172C287.013 39.7972 288.101 40.5972 289.029 41.7172C289.989 42.8052 290.485 44.2772 290.517 46.1332C290.517 47.7012 290.069 49.1092 289.173 50.3572C288.309 51.5732 287.045 52.5332 285.381 53.2372C283.749 53.9412 281.845 54.2932 279.669 54.2932ZM311.907 53.9092L303.747 42.6772V53.9092H295.539V18.3892H303.747V38.0212L311.859 27.1252H321.987L310.851 40.5652L322.083 53.9092H311.907ZM350.458 40.0852C350.458 40.8532 350.41 41.6532 350.314 42.4852H331.738C331.866 44.1492 332.394 45.4292 333.322 46.3252C334.282 47.1892 335.45 47.6212 336.826 47.6212C338.874 47.6212 340.298 46.7572 341.098 45.0292H349.834C349.386 46.7892 348.57 48.3732 347.386 49.7812C346.234 51.1892 344.778 52.2932 343.018 53.0932C341.258 53.8932 339.29 54.2932 337.114 54.2932C334.49 54.2932 332.154 53.7332 330.106 52.6132C328.058 51.4932 326.458 49.8932 325.306 47.8132C324.154 45.7332 323.578 43.3012 323.578 40.5172C323.578 37.7332 324.138 35.3012 325.258 33.2212C326.41 31.1412 328.01 29.5412 330.058 28.4212C332.106 27.3012 334.458 26.7412 337.114 26.7412C339.706 26.7412 342.01 27.2852 344.026 28.3732C346.042 29.4612 347.61 31.0132 348.73 33.0292C349.882 35.0452 350.458 37.3972 350.458 40.0852ZM342.058 37.9252C342.058 36.5172 341.578 35.3972 340.618 34.5652C339.658 33.7332 338.458 33.3172 337.018 33.3172C335.642 33.3172 334.474 33.7172 333.514 34.5172C332.586 35.3172 332.01 36.4532 331.786 37.9252H342.058Z" fill="#7B806D"/>
</svg>
