<svg width="30" height="28" viewBox="0 0 30 28" fill="none" xmlns="http://www.w3.org/2000/svg">
<path d="M23.2105 23.4667L16.3333 17.1561C15.7193 17.6069 15.0132 17.9637 14.2149 18.2266C13.4167 18.4896 12.5672 18.6211 11.6667 18.6211C9.43567 18.6211 7.54771 17.9122 6.0028 16.4946C4.45707 15.0762 3.6842 13.3434 3.6842 11.2962C3.6842 9.24905 4.45707 7.51627 6.0028 6.09788C7.54771 4.68025 9.43567 3.97144 11.6667 3.97144C13.8977 3.97144 15.786 4.68025 17.3317 6.09788C18.8767 7.51627 19.6491 9.24905 19.6491 11.2962C19.6491 12.1226 19.5058 12.9021 19.2193 13.6346C18.9327 14.367 18.5439 15.015 18.0526 15.5784L24.9605 21.9172C25.1857 22.1238 25.2982 22.3774 25.2982 22.6779C25.2982 22.9784 25.1754 23.2413 24.9298 23.4667C24.7047 23.6733 24.4181 23.7766 24.0702 23.7766C23.7222 23.7766 23.4357 23.6733 23.2105 23.4667ZM11.6667 16.3673C13.2017 16.3673 14.5068 15.8744 15.5817 14.8888C16.6559 13.9024 17.193 12.7049 17.193 11.2962C17.193 9.88763 16.6559 8.69012 15.5817 7.70371C14.5068 6.71805 13.2017 6.22522 11.6667 6.22522C10.1316 6.22522 8.82654 6.71805 7.75157 7.70371C6.67742 8.69012 6.14034 9.88763 6.14034 11.2962C6.14034 12.7049 6.67742 13.9024 7.75157 14.8888C8.82654 15.8744 10.1316 16.3673 11.6667 16.3673Z" fill="black"/>
</svg>

